<svg width="20" height="20" viewBox="0 0 20 20" fill="none" xmlns="http://www.w3.org/2000/svg">
<path d="M6.50001 1.67114H13.5C16.1667 1.67114 18.3333 3.83781 18.3333 6.50448V13.5045C18.3333 14.7864 17.8241 16.0157 16.9177 16.9222C16.0113 17.8286 14.7819 18.3378 13.5 18.3378H6.50001C3.83334 18.3378 1.66667 16.1711 1.66667 13.5045V6.50448C1.66667 5.2226 2.1759 3.99322 3.08232 3.08679C3.98875 2.18037 5.21813 1.67114 6.50001 1.67114ZM6.33334 3.33781C5.53769 3.33781 4.77463 3.65388 4.21202 4.21649C3.64941 4.7791 3.33334 5.54216 3.33334 6.33781V13.6711C3.33334 15.3295 4.67501 16.6711 6.33334 16.6711H13.6667C14.4623 16.6711 15.2254 16.3551 15.788 15.7925C16.3506 15.2299 16.6667 14.4668 16.6667 13.6711V6.33781C16.6667 4.67948 15.325 3.33781 13.6667 3.33781H6.33334ZM14.375 4.58781C14.6513 4.58781 14.9162 4.69756 15.1116 4.89291C15.3069 5.08826 15.4167 5.35321 15.4167 5.62948C15.4167 5.90574 15.3069 6.1707 15.1116 6.36605C14.9162 6.5614 14.6513 6.67114 14.375 6.67114C14.0987 6.67114 13.8338 6.5614 13.6384 6.36605C13.4431 6.1707 13.3333 5.90574 13.3333 5.62948C13.3333 5.35321 13.4431 5.08826 13.6384 4.89291C13.8338 4.69756 14.0987 4.58781 14.375 4.58781ZM10 5.83781C11.1051 5.83781 12.1649 6.2768 12.9463 7.0582C13.7277 7.8396 14.1667 8.89941 14.1667 10.0045C14.1667 11.1095 13.7277 12.1694 12.9463 12.9508C12.1649 13.7322 11.1051 14.1711 10 14.1711C8.89494 14.1711 7.83513 13.7322 7.05373 12.9508C6.27233 12.1694 5.83334 11.1095 5.83334 10.0045C5.83334 8.89941 6.27233 7.8396 7.05373 7.0582C7.83513 6.2768 8.89494 5.83781 10 5.83781ZM10 7.50448C9.33696 7.50448 8.70108 7.76787 8.23224 8.23671C7.7634 8.70555 7.50001 9.34143 7.50001 10.0045C7.50001 10.6675 7.7634 11.3034 8.23224 11.7722C8.70108 12.2411 9.33696 12.5045 10 12.5045C10.663 12.5045 11.2989 12.2411 11.7678 11.7722C12.2366 11.3034 12.5 10.6675 12.5 10.0045C12.5 9.34143 12.2366 8.70555 11.7678 8.23671C11.2989 7.76787 10.663 7.50448 10 7.50448Z" fill="white"/>
</svg>
