<svg width="87" height="88" viewBox="0 0 87 88" fill="none" xmlns="http://www.w3.org/2000/svg">
<path d="M67.0009 61.2805C62.0461 62.4702 56.8736 62.4126 51.9466 61.1127C47.0196 59.8128 42.4918 57.3113 38.7688 53.8322C35.0458 50.3531 32.2437 46.0049 30.6135 41.1771C28.9833 36.3493 28.5759 31.1926 29.4277 26.1687C29.3001 26.2959 29.1632 26.4135 29.0181 26.5203C28.0031 27.2925 26.7344 27.5788 24.1969 28.1516L21.895 28.6736C12.9775 30.6927 8.51875 31.7005 7.45662 35.1116C6.39812 38.5191 9.43587 42.0752 15.515 49.1838L17.0882 51.0217C18.8137 53.0408 19.6801 54.0522 20.068 55.2992C20.4559 56.5498 20.3254 57.8983 20.0644 60.5917L19.8251 63.0458C18.908 72.5325 18.4476 77.274 21.2244 79.3801C24.0011 81.4862 28.1771 79.5686 36.5219 75.7225L38.686 74.7292C41.0567 73.6344 42.2421 73.0907 43.5 73.0907C44.7579 73.0907 45.9432 73.6344 48.3176 74.7292L50.4745 75.7225C58.8229 79.565 62.9989 81.4862 65.772 79.3837C68.5524 77.274 68.092 72.5325 67.1749 63.0458L67.0009 61.2805Z" fill="white"/>
<path opacity="0.5" d="M33.1796 20.104L31.9906 22.2355C30.6856 24.5773 30.0331 25.7481 29.0181 26.5203C29.1631 26.4115 29.2997 26.2943 29.4278 26.1686C28.5757 31.1929 28.9831 36.3501 30.6135 41.1782C32.2438 46.0064 35.0463 50.3548 38.7698 53.8341C42.4932 57.3133 47.0215 59.8147 51.9491 61.1142C56.8766 62.4137 62.0495 62.4708 67.0045 61.2804L66.932 60.5916C66.6746 57.8983 66.5441 56.5498 66.932 55.2991C67.3199 54.0521 68.1826 53.0408 69.9118 51.0216L71.485 49.1838C77.5641 42.0788 80.6019 38.5226 79.5398 35.1115C78.4813 31.7004 74.0225 30.689 65.105 28.6735L62.7995 28.1515C60.2656 27.5788 58.9969 27.2924 57.9783 26.5203C56.9633 25.7481 56.3108 24.5773 55.0058 22.2355L53.8204 20.104C49.2275 11.868 46.9329 7.75 43.5 7.75C40.0671 7.75 37.7725 11.868 33.1796 20.104Z" fill="white"/>
</svg>
