<svg width="20" height="20" viewBox="0 0 20 20" fill="none" xmlns="http://www.w3.org/2000/svg">
<path d="M13.8333 4.85439C13.2638 4.204 12.9499 3.36889 12.95 2.50439H10.375V12.8377C10.3556 13.3971 10.1196 13.927 9.71693 14.3156C9.31425 14.7043 8.77634 14.9214 8.21667 14.9211C7.03334 14.9211 6.05001 13.9544 6.05001 12.7544C6.05001 11.3211 7.43334 10.2461 8.85834 10.6877V8.05439C5.98334 7.67106 3.46667 9.90439 3.46667 12.7544C3.46667 15.5294 5.76668 17.5044 8.20834 17.5044C10.825 17.5044 12.95 15.3794 12.95 12.7544V7.51273C13.9942 8.2626 15.2478 8.66493 16.5333 8.66273V6.08773C16.5333 6.08773 14.9667 6.16273 13.8333 4.85439Z" fill="white"/>
</svg>
