<svg width="20" height="20" viewBox="0 0 20 20" fill="none" xmlns="http://www.w3.org/2000/svg">
<path d="M18.7167 5.00431C18.075 5.29598 17.3833 5.48765 16.6667 5.57931C17.4 5.13765 17.9667 4.43765 18.2333 3.59598C17.5417 4.01265 16.775 4.30431 15.9667 4.47098C15.3083 3.75431 14.3833 3.33765 13.3333 3.33765C11.375 3.33765 9.77501 4.93765 9.77501 6.91265C9.77501 7.19598 9.80834 7.47098 9.86667 7.72931C6.90001 7.57931 4.25834 6.15431 2.50001 3.99598C2.19167 4.52098 2.01667 5.13765 2.01667 5.78765C2.01667 7.02931 2.64167 8.12931 3.60834 8.75431C3.01667 8.75431 2.46667 8.58765 1.98334 8.33765V8.36265C1.98334 10.096 3.21667 11.546 4.85001 11.871C4.32571 12.0151 3.77504 12.0351 3.24167 11.9293C3.46801 12.6397 3.91129 13.2613 4.50919 13.7068C5.10709 14.1522 5.82955 14.3991 6.57501 14.4126C5.3114 15.4131 3.74501 15.9538 2.13334 15.946C1.85001 15.946 1.56667 15.9293 1.28334 15.896C2.86667 16.9126 4.75001 17.5043 6.76667 17.5043C13.3333 17.5043 16.9417 12.0543 16.9417 7.32931C16.9417 7.17098 16.9417 7.02098 16.9333 6.86265C17.6333 6.36265 18.2333 5.72931 18.7167 5.00431Z" fill="white"/>
</svg>
